<svg id="Слой_1" data-name="Слой 1" xmlns="http://www.w3.org/2000/svg" width="128.57" height="30.29" viewBox="0 0 128.57 30.29">
  <defs>
    <style>
      .cls-1 {
        fill: #697dff;
      }

      .cls-2, .cls-3 {
        fill: #fff;
      }

      .cls-2, .cls-5 {
        fill-opacity: 0.2;
      }

      .cls-3, .cls-4 {
        fill-opacity: 0.1;
      }

      .cls-6 {
        fill-opacity: 0.3;
      }

      .cls-7 {
        fill-opacity: 0.4;
      }

      .cls-8 {
        fill-opacity: 0.5;
      }

      .cls-9 {
        fill: #536dfe;
      }

      .cls-10 {
        fill: none;
      }

      .cls-11 {
        fill: #303f9f;
      }

      .cls-12 {
        fill: #3f51b5;
      }

      .cls-13 {
        fill: #7986cb;
      }

      .cls-14 {
        font-size: 24px;
        fill: #6a6ace;
        font-family: NeoSansPro-Regular, Neo Sans Pro;
      }
    </style>
  </defs>
  <title>logo2</title>
  <g>
    <path class="cls-1" d="M38.5,90l-18-30.29h9L47.53,90Z" transform="translate(-11.42 -59.71)"/>
    <path class="cls-2" d="M38.5,90,43,82.43,47.53,90Z" transform="translate(-11.42 -59.71)"/>
    <path class="cls-3" d="M34,82.43,38.5,90,43,82.43Z" transform="translate(-11.42 -59.71)"/>
    <path class="cls-4" d="M29.48,74.86,34,82.43l4.51-7.57Z" transform="translate(-11.42 -59.71)"/>
    <path class="cls-5" d="M29.48,74.86,34,67.28l4.51,7.58Z" transform="translate(-11.42 -59.71)"/>
    <path class="cls-6" d="M25,67.28l4.52,7.58L34,67.28Z" transform="translate(-11.42 -59.71)"/>
    <path class="cls-7" d="M25,67.28l4.52-7.57L34,67.28Z" transform="translate(-11.42 -59.71)"/>
    <path class="cls-8" d="M20.45,59.71,25,67.28l4.52-7.57Z" transform="translate(-11.42 -59.71)"/>
    <g>
      <path class="cls-9" d="M20.45,90l-9-15.14,4.52-7.58L29.48,90Z" transform="translate(-11.42 -59.71)"/>
      <path class="cls-2" d="M20.45,90,25,82.43,29.48,90Z" transform="translate(-11.42 -59.71)"/>
      <path class="cls-3" d="M15.94,82.43,20.45,90,25,82.43Z" transform="translate(-11.42 -59.71)"/>
      <path class="cls-10" d="M15.94,82.43l4.51-7.57L25,82.43Z" transform="translate(-11.42 -59.71)"/>
      <path class="cls-4" d="M11.42,74.86l4.52,7.57,4.51-7.57Z" transform="translate(-11.42 -59.71)"/>
      <path class="cls-5" d="M11.42,74.86l4.52-7.58,4.51,7.58Z" transform="translate(-11.42 -59.71)"/>
    </g>
    <g>
      <path class="cls-11" d="M20.45,74.86l-4.51-7.58,4.51-7.57L25,67.28Z" transform="translate(-11.42 -59.71)"/>
      <path class="cls-5" d="M25,67.28l-4.51-7.57-4.51,7.57Z" transform="translate(-11.42 -59.71)"/>
    </g>
    <g>
      <path class="cls-12" d="M47.52,90,43,82.43l4.51-7.57L52,82.43,47.52,90Z" transform="translate(-11.42 -59.71)"/>
      <path class="cls-5" d="M52,82.43,47.53,90,43,82.43Z" transform="translate(-11.42 -59.71)"/>
    </g>
    <g>
      <path class="cls-13" d="M52,82.43,38.5,59.71h9l9,15.15L52,82.43Z" transform="translate(-11.42 -59.71)"/>
      <path class="cls-2" d="M47.52,74.86,52,82.43l4.51-7.57Z" transform="translate(-11.42 -59.71)"/>
      <path class="cls-3" d="M47.52,74.86,52,67.28l4.51,7.58Z" transform="translate(-11.42 -59.71)"/>
      <path class="cls-4" d="M43,67.28l4.51-7.57L52,67.28Z" transform="translate(-11.42 -59.71)"/>
      <path class="cls-5" d="M38.5,59.71,43,67.28l4.52-7.57Z" transform="translate(-11.42 -59.71)"/>
    </g>
  </g>
  <text class="cls-14" transform="translate(48.93 23.36) scale(1.1 1)">CoPoly</text>
</svg>
