<svg id="Слой_1" data-name="Слой 1" xmlns="http://www.w3.org/2000/svg" width="45.09" height="30.29" viewBox="0 0 45.09 30.29">
  <defs>
    <style>
      .cls-1 {
        fill: #697dff;
      }

      .cls-2, .cls-3 {
        fill: #fff;
      }

      .cls-2, .cls-5 {
        fill-opacity: 0.2;
      }

      .cls-3, .cls-4 {
        fill-opacity: 0.1;
      }

      .cls-6 {
        fill-opacity: 0.3;
      }

      .cls-7 {
        fill-opacity: 0.4;
      }

      .cls-8 {
        fill-opacity: 0.5;
      }

      .cls-9 {
        fill: #536dfe;
      }

      .cls-10 {
        fill: none;
      }

      .cls-11 {
        fill: #303f9f;
      }

      .cls-12 {
        fill: #3f51b5;
      }

      .cls-13 {
        fill: #7986cb;
      }
    </style>
  </defs>
  <title>main_logo</title>
  <g>
    <path class="cls-1" d="M27.08,30.29,9.08,0h9l18,30.29Z"/>
    <path class="cls-2" d="M27.08,30.29l4.5-7.57,4.53,7.57Z"/>
    <path class="cls-3" d="M22.58,22.72l4.5,7.57,4.5-7.57Z"/>
    <path class="cls-4" d="M18.06,15.15l4.52,7.57,4.51-7.57Z"/>
    <path class="cls-5" d="M18.06,15.15l4.52-7.58,4.51,7.58Z"/>
    <path class="cls-6" d="M13.58,7.57l4.52,7.58,4.48-7.58Z"/>
    <path class="cls-7" d="M13.58,7.57,18.1,0l4.48,7.57Z"/>
    <path class="cls-8" d="M9,0l4.55,7.57L18.1,0Z"/>
    <g>
      <path class="cls-9" d="M9,30.29,0,15.15,4.55,7.57,18.06,30.29Z"/>
      <path class="cls-2" d="M9,30.29l4.55-7.57,4.48,7.57Z"/>
      <path class="cls-3" d="M4.52,22.72,9,30.29l4.55-7.57Z"/>
      <path class="cls-10" d="M4.52,22.72,9,15.15l4.55,7.57Z"/>
      <path class="cls-4" d="M0,15.15l4.52,7.57L9,15.15Z"/>
      <path class="cls-5" d="M0,15.15,4.52,7.57,9,15.15Z"/>
    </g>
    <g>
      <path class="cls-11" d="M9,15.15,4.52,7.57,9,0l4.55,7.57Z"/>
      <path class="cls-5" d="M13.58,7.57,9.07,0,4.56,7.57Z"/>
    </g>
    <g>
      <path class="cls-12" d="M36.1,30.29l-4.52-7.57,4.51-7.57,4.49,7.57Z"/>
      <path class="cls-5" d="M40.58,22.72l-4.47,7.57-4.53-7.57Z"/>
    </g>
    <g>
      <path class="cls-13" d="M40.58,22.72,27.08,0h9l9,15.15Z"/>
      <path class="cls-2" d="M36.1,15.15l4.48,7.57,4.51-7.57Z"/>
      <path class="cls-3" d="M36.1,15.15l4.48-7.58,4.51,7.58Z"/>
      <path class="cls-4" d="M31.58,7.57,36.09,0l4.49,7.57Z"/>
      <path class="cls-5" d="M27.08,0l4.5,7.57L36.1,0Z"/>
    </g>
  </g>
</svg>
