<?xml version="1.0" encoding="iso-8859-1"?>
<!-- Generator: Adobe Illustrator 19.0.0, SVG Export Plug-In . SVG Version: 6.00 Build 0)  -->
<svg version="1.1" id="Capa_1" xmlns="http://www.w3.org/2000/svg" xmlns:xlink="http://www.w3.org/1999/xlink" x="0px" y="0px"
	 viewBox="0 0 468.917 468.917" style="enable-background:new 0 0 468.917 468.917;" xml:space="preserve">
<g>
	<path style="fill:#2F4859;" d="M269.074,370.888l158.595-187.941c-2.498-8.117,0-3.122-2.498-4.995
		c-1.873-1.873-3.122-4.371-4.995-2.498L255.337,370.888H269.074z"/>
	<rect x="229.737" y="178.576" style="fill:#2F4859;" width="9.99" height="192.312"/>
	<path style="fill:#2F4859;" d="M254.713,370.888l88.663-192.312c1.249-2.498-3.122,0.624-5.62-0.624
		c-2.498-1.249-4.371-2.498-5.62,0.624l-88.663,192.312H254.713z"/>
	<path style="fill:#2F4859;" d="M224.742,370.888L131.708,169.21c-1.249-2.498,1.249,7.493-1.249,8.741
		c-2.498,1.249-8.741-6.868-8.117-4.371l91.161,197.307H224.742z"/>
	<path style="fill:#2F4859;" d="M214.128,370.888L49.289,176.078c-0.624-0.624-0.624-0.624-1.249-0.624
		c-1.873,2.498-4.371,4.995-6.868,7.493l159.219,188.566h13.737V370.888z"/>
</g>
<path style="fill:#EBF0F3;" d="M427.045,161.093c-3.746-38.712-19.98-74.302-64.937-84.293C248.469,50.576,234.733,0,234.733,0
	s-13.737,50.576-127.376,76.176c-44.956,10.615-61.815,45.58-64.937,84.293h384.624V161.093z"/>
<path style="fill:#E56353;" d="M427.669,182.946c-27.473-24.351-56.819-21.854-88.663,0c-37.463-20.605-73.054-26.849-104.273,0
	c-34.341-21.854-69.307-27.473-104.273,0c-40.585-31.844-68.059-26.849-88.663,0C40.547,136.117,54.284,88.663,107.981,76.8
	C217.25,51.2,233.484,3.122,234.733,0l0,0l0,0c0.624,3.122,17.483,51.2,126.751,76.176
	C415.181,88.663,428.918,136.117,427.669,182.946z"/>
<path style="fill:#F7BE56;" d="M154.811,357.151v96.78c0,8.117,6.868,14.985,14.985,14.985h129.873
	c8.117,0,14.985-6.868,14.985-14.985v-96.78H154.811z"/>
<path style="fill:#DC8744;" d="M329.015,359.024L329.015,359.024c0-8.117-6.244-14.361-13.737-14.361H154.811
	c-7.493,0-13.737,6.244-13.737,14.361l0,0c0,8.117,6.244,14.361,13.737,14.361h160.468
	C322.772,373.385,329.015,367.141,329.015,359.024z"/>
<path style="fill:#D15241;" d="M234.733,0v182.946c-34.966-21.854-69.307-27.473-104.273,0
	c-0.624-46.829,6.868-94.283,35.59-106.771C227.24,50.576,234.733,0,234.733,0z"/>
<path style="fill:#CE412D;" d="M339.006,182.946c-37.463-20.605-73.054-27.473-104.273,0V0c0,0,7.493,50.576,68.683,76.176
	C332.762,88.663,339.63,136.117,339.006,182.946z"/>
<g>
</g>
<g>
</g>
<g>
</g>
<g>
</g>
<g>
</g>
<g>
</g>
<g>
</g>
<g>
</g>
<g>
</g>
<g>
</g>
<g>
</g>
<g>
</g>
<g>
</g>
<g>
</g>
<g>
</g>
</svg>
