<?xml version="1.0" encoding="iso-8859-1"?>
<!-- Generator: Adobe Illustrator 18.0.0, SVG Export Plug-In . SVG Version: 6.00 Build 0)  -->
<!DOCTYPE svg PUBLIC "-//W3C//DTD SVG 1.1//EN" "http://www.w3.org/Graphics/SVG/1.1/DTD/svg11.dtd">
<svg version="1.1" id="Capa_1" xmlns="http://www.w3.org/2000/svg" xmlns:xlink="http://www.w3.org/1999/xlink" x="0px" y="0px"
	 viewBox="0 0 297 297" style="enable-background:new 0 0 297 297;" xml:space="preserve">
<g>
	<g>
		<g>
			<path style="fill:#905835;" d="M131.158,276.77l34.685,0c4.549,0,8.236-3.687,8.236-8.236v-0.754
				c0-4.549-3.687-8.236-8.236-8.236l-34.685,0c-4.549,0-8.236,3.687-8.236,8.236v0.754
				C122.921,273.082,126.609,276.77,131.158,276.77z"/>
		</g>
	</g>
	<g>
		<g>
			<path style="fill:#FFA800;" d="M8.026,58.63C-0.119,63.447-2.468,74.174,2.851,82c11.102,16.337,22.204,32.673,33.307,49.009
				c4.797,7.059,14.214,9.298,21.64,5.091c27.914-15.814,58.966-23.768,90.041-23.879v-91.99
				C99.468,20.347,51.122,33.143,8.026,58.63z"/>
		</g>
		<g>
			<path style="fill:#704220;" d="M112.75,115.72l11.023,110.236L89.139,122.052c-2.504,0.853-4.992,1.768-7.466,2.731
				l35.271,105.814l-59.082-94.532c-0.021,0.012-0.043,0.023-0.065,0.035c-2.514,1.424-5.256,2.093-7.97,2.103l76.708,122.733
				c1.304-0.879,2.876-1.393,4.567-1.393h4.016L120.601,114.36C117.977,114.762,115.359,115.205,112.75,115.72z"/>
		</g>
		<g>
			<path style="fill:#E59200;" d="M288.974,58.63c-43.489-25.719-92.325-38.516-141.136-38.399v91.99
				c31.516-0.113,63.054,7.841,91.364,23.879c7.426,4.207,16.843,1.968,21.64-5.091c11.102-16.337,22.204-32.673,33.307-49.01
				C299.468,74.174,297.119,63.447,288.974,58.63z"/>
		</g>
		<g>
			<path style="fill:#704220;" d="M239.203,136.1c-0.021-0.012-0.043-0.023-0.064-0.035l-59.082,94.532l35.271-105.814
				c-2.474-0.964-4.963-1.874-7.468-2.727l-34.633,103.899l11.022-110.226c-2.609-0.516-5.225-0.976-7.849-1.378l-14.519,145.191
				h4.016c1.691,0,3.263,0.514,4.567,1.393l76.708-122.733C244.458,138.194,241.717,137.525,239.203,136.1z"/>
		</g>
	</g>
	<g style="opacity:0.49;">
		<g>
			<path style="fill:#FFA800;" d="M36.157,114.01C25.055,97.674,13.953,81.337,2.851,65.001c-0.17-0.251-0.311-0.513-0.466-0.769
				C-0.823,69.544-0.896,76.487,2.851,82c11.102,16.337,22.204,32.673,33.307,49.009c4.797,7.059,14.214,9.298,21.64,5.091
				c27.914-15.814,58.966-23.768,90.041-23.879V95.222c-31.075,0.112-62.127,8.065-90.041,23.879
				C50.371,123.309,40.955,121.069,36.157,114.01z"/>
		</g>
		<g>
			<path style="fill:#E59200;" d="M294.149,65.001c-11.102,16.336-22.204,32.673-33.307,49.009
				c-4.797,7.059-14.214,9.298-21.64,5.091c-28.31-16.039-59.849-23.992-91.364-23.879v16.999
				c31.516-0.113,63.054,7.841,91.364,23.879c7.426,4.207,16.843,1.968,21.64-5.091c11.102-16.337,22.204-32.673,33.307-49.01
				c3.746-5.513,3.674-12.457,0.466-17.769C294.46,64.488,294.32,64.75,294.149,65.001z"/>
		</g>
	</g>
</g>
<g>
</g>
<g>
</g>
<g>
</g>
<g>
</g>
<g>
</g>
<g>
</g>
<g>
</g>
<g>
</g>
<g>
</g>
<g>
</g>
<g>
</g>
<g>
</g>
<g>
</g>
<g>
</g>
<g>
</g>
</svg>
