<?xml version="1.0" encoding="iso-8859-1"?>
<!-- Generator: Adobe Illustrator 19.0.0, SVG Export Plug-In . SVG Version: 6.00 Build 0)  -->
<svg version="1.1" id="Capa_1" xmlns="http://www.w3.org/2000/svg" xmlns:xlink="http://www.w3.org/1999/xlink" x="0px" y="0px"
	 viewBox="0 0 468.293 468.293" style="enable-background:new 0 0 468.293 468.293;" xml:space="preserve">
<g>
	<path style="fill:#64798A;" d="M231.418,147.957v226.293L67.464,167.281l-1.992-2.538c-0.52-0.628-1.229-0.983-1.966-1.011
		c-0.109,2.348-0.163,4.723-0.163,7.098l168.649,212.947c0.546,0.682,1.338,1.037,2.155,1.037c0.301,0,0.602-0.054,0.901-0.164
		c1.091-0.382,1.829-1.392,1.829-2.566V147.957H231.418z"/>
	<path style="fill:#64798A;" d="M404.953,170.802L236.276,383.777c-0.518,0.654-1.31,1.037-2.129,1.037c-0.109,0-0.218,0-0.3-0.027
		c-0.956-0.109-1.775-0.682-2.156-1.529L130.075,169.164l-0.737-1.556c-0.655-1.365-0.082-3.002,1.283-3.63
		c1.365-0.654,3.003-0.081,3.63,1.283l1.091,2.292l99.377,209.4l166.084-209.673l1.992-2.538c0.518-0.628,1.255-0.983,1.992-1.01
		C404.898,166.08,404.953,168.427,404.953,170.802z"/>
	<path style="fill:#64798A;" d="M234.144,384.814c-1.343,0-2.487-0.976-2.695-2.303l-34.117-215.66
		c-0.237-1.49,0.778-2.887,2.268-3.121c1.474-0.237,2.887,0.781,3.121,2.268l31.423,198.62l31.423-198.62
		c0.235-1.487,1.629-2.5,3.121-2.268c1.49,0.235,2.505,1.631,2.268,3.121l-34.117,215.66
		C236.631,383.839,235.488,384.814,234.144,384.814z"/>
	<path style="fill:#64798A;" d="M234.142,384.814c-0.392,0-0.789-0.085-1.167-0.264c-1.362-0.645-1.943-2.274-1.295-3.636
		l102.344-215.652c0.645-1.362,2.271-1.94,3.636-1.295c1.362,0.645,1.943,2.274,1.295,3.636L236.61,383.255
		C236.143,384.238,235.163,384.814,234.142,384.814z"/>
</g>
<path style="fill:#D15241;" d="M404.951,170.806h-0.219c-18.86-18.943-49.402-18.943-68.235,0c-18.86-18.943-49.402-18.943-68.235,0
	c-18.86-18.943-49.402-18.943-68.235,0c-18.833-18.943-49.402-18.943-68.235,0c-18.833-18.943-49.374-18.943-68.235,0H63.34
	C63.34,76.478,139.817,0,234.145,0S404.951,76.478,404.951,170.806z"/>
<path style="fill:#EBF0F3;" d="M336.489,170.813c-18.915-18.042-49.694-18.649-68.227-0.007c-18.86-18.943-49.402-18.943-68.235,0
	c-18.533-18.642-49.343-18.035-68.23,0.007C139.249,74.738,182.751,0.219,234.145,0.219
	C285.54,0.219,329.038,74.738,336.489,170.813z"/>
<path style="fill:#E56353;" d="M268.563,170.505l-0.301,0.301c-18.86-18.943-49.402-18.943-68.235,0
	c-0.109-0.109-0.191-0.191-0.3-0.301c3.275-96.702,17.604-170.205,34.417-170.205C250.959,0.301,265.288,73.803,268.563,170.505z"/>
<path style="fill:#FCD462;" d="M310.488,354.805v104.938c0,4.719-3.825,8.544-8.544,8.544H166.343c-4.719,0-8.544-3.825-8.544-8.544
	V354.805c0-4.719,3.825-8.544,8.544-8.544h135.601C306.663,346.261,310.488,350.087,310.488,354.805z"/>
<polygon style="fill:#F7BE56;" points="310.489,402.678 310.489,411.876 238.733,411.876 238.733,468.293 229.562,468.293 
	229.562,411.876 157.806,411.876 157.806,402.678 229.562,402.678 229.562,346.261 238.733,346.261 238.733,402.678 "/>
<g>
</g>
<g>
</g>
<g>
</g>
<g>
</g>
<g>
</g>
<g>
</g>
<g>
</g>
<g>
</g>
<g>
</g>
<g>
</g>
<g>
</g>
<g>
</g>
<g>
</g>
<g>
</g>
<g>
</g>
</svg>
